G04 #@! TF.FileFunction,Copper,L1,Top,Signal*
%FSLAX46Y46*%
G04 Gerber Fmt 4.6, Leading zero omitted, Abs format (unit mm)*
G04 Created by KiCad (PCBNEW 4.0.3-stable) date Wednesday, November 30, 2016 'PMt' 10:27:00 PM*
%MOMM*%
%LPD*%
G01*
G04 APERTURE LIST*
%ADD10C,0.100000*%
%ADD11C,0.150000*%
%ADD12R,1.800000X1.400000*%
%ADD13R,2.000000X1.000000*%
%ADD14C,0.250000*%
G04 APERTURE END LIST*
D10*
D11*
X166834000Y-115010000D02*
X167084000Y-115010000D01*
X166834000Y-114760000D02*
X166834000Y-115010000D01*
X167084000Y-114760000D02*
X166834000Y-114760000D01*
X167084000Y-115010000D02*
X167084000Y-114760000D01*
X166834000Y-107390000D02*
X167084000Y-107390000D01*
X166834000Y-107140000D02*
X166834000Y-107390000D01*
X167084000Y-107140000D02*
X166834000Y-107140000D01*
X167084000Y-107390000D02*
X167084000Y-107140000D01*
X166834000Y-99770000D02*
X167084000Y-99770000D01*
X166834000Y-99520000D02*
X166834000Y-99770000D01*
X167084000Y-99520000D02*
X166834000Y-99520000D01*
X167084000Y-99770000D02*
X167084000Y-99520000D01*
X166834000Y-92150000D02*
X167084000Y-92150000D01*
X166834000Y-91900000D02*
X166834000Y-92150000D01*
X167084000Y-91900000D02*
X166834000Y-91900000D01*
X167084000Y-92150000D02*
X167084000Y-91900000D01*
D12*
X117706194Y-113267530D03*
X117706194Y-109967530D03*
X112906194Y-109967530D03*
X112906194Y-113267530D03*
X117706194Y-105647530D03*
X117706194Y-102347530D03*
X112906194Y-102347530D03*
X112906194Y-105647530D03*
X117706194Y-98027530D03*
X117706194Y-94727530D03*
X112906194Y-94727530D03*
X112906194Y-98027530D03*
X117706194Y-90407530D03*
X117706194Y-87107530D03*
X112906194Y-87107530D03*
X112906194Y-90407530D03*
X166484000Y-113410000D03*
X166484000Y-110110000D03*
X161684000Y-110110000D03*
X161684000Y-113410000D03*
X166484000Y-105790000D03*
X166484000Y-102490000D03*
X161684000Y-102490000D03*
X161684000Y-105790000D03*
X166484000Y-98170000D03*
X166484000Y-94870000D03*
X161684000Y-94870000D03*
X161684000Y-98170000D03*
X166484000Y-90550000D03*
X166484000Y-87250000D03*
X161684000Y-87250000D03*
X161684000Y-90550000D03*
D13*
X129160000Y-107188000D03*
X132460000Y-114808000D03*
X129160000Y-112268000D03*
X129160000Y-102108000D03*
X129160000Y-97028000D03*
X129160000Y-91948000D03*
X129160000Y-86868000D03*
X132460000Y-109728000D03*
X132460000Y-104648000D03*
X132460000Y-99568000D03*
X132460000Y-94488000D03*
X132460000Y-89408000D03*
X150240000Y-114808000D03*
X150240000Y-109728000D03*
X150240000Y-104648000D03*
X150240000Y-99568000D03*
X150240000Y-94488000D03*
X150240000Y-89408000D03*
X146940000Y-112268000D03*
X146940000Y-107188000D03*
X146940000Y-102108000D03*
X146940000Y-97028000D03*
X146940000Y-91948000D03*
X146940000Y-86868000D03*
D14*
X159258000Y-103766000D02*
X159258000Y-106734000D01*
X159258000Y-106734000D02*
X161684000Y-109160000D01*
X161684000Y-109160000D02*
X161684000Y-110110000D01*
X161684000Y-102490000D02*
X160534000Y-102490000D01*
X160534000Y-102490000D02*
X159258000Y-103766000D01*
X159512000Y-96842000D02*
X159512000Y-99368000D01*
X159512000Y-99368000D02*
X161684000Y-101540000D01*
X161684000Y-101540000D02*
X161684000Y-102490000D01*
X161684000Y-94870000D02*
X161484000Y-94870000D01*
X161484000Y-94870000D02*
X159512000Y-96842000D01*
X159258000Y-88526000D02*
X159258000Y-91494000D01*
X159258000Y-91494000D02*
X161684000Y-93920000D01*
X161684000Y-93920000D02*
X161684000Y-94870000D01*
X161684000Y-87250000D02*
X160534000Y-87250000D01*
X160534000Y-87250000D02*
X159258000Y-88526000D01*
X129160000Y-86868000D02*
X129160000Y-88774000D01*
X129160000Y-88774000D02*
X132588000Y-92202000D01*
X132588000Y-92202000D02*
X140716000Y-92202000D01*
X140716000Y-92202000D02*
X143510000Y-89408000D01*
X143510000Y-89408000D02*
X147320000Y-89408000D01*
X147320000Y-89408000D02*
X149478000Y-87250000D01*
X149478000Y-87250000D02*
X161684000Y-87250000D01*
X119396470Y-98027530D02*
X120142000Y-98773060D01*
X120142000Y-98773060D02*
X120142000Y-104394000D01*
X120142000Y-104394000D02*
X118888470Y-105647530D01*
X118888470Y-105647530D02*
X117706194Y-105647530D01*
X117706194Y-105647530D02*
X118855530Y-105647530D01*
X118855530Y-105647530D02*
X120142000Y-106934000D01*
X120142000Y-106934000D02*
X120142000Y-111506000D01*
X120142000Y-111506000D02*
X118380470Y-113267530D01*
X118380470Y-113267530D02*
X117706194Y-113267530D01*
X117706194Y-90407530D02*
X118856194Y-90407530D01*
X118856194Y-90407530D02*
X120142000Y-91693336D01*
X120142000Y-91693336D02*
X120142000Y-97282000D01*
X120142000Y-97282000D02*
X119396470Y-98027530D01*
X119396470Y-98027530D02*
X117706194Y-98027530D01*
X129160000Y-86868000D02*
X128660000Y-86868000D01*
X128660000Y-86868000D02*
X125120470Y-90407530D01*
X125120470Y-90407530D02*
X117706194Y-90407530D01*
X132460000Y-85724000D02*
X132462000Y-85724000D01*
X169038000Y-90550000D02*
X166484000Y-90550000D01*
X132462000Y-85724000D02*
X133604000Y-84582000D01*
X133604000Y-84582000D02*
X168148000Y-84582000D01*
X168148000Y-84582000D02*
X169926000Y-86360000D01*
X169926000Y-86360000D02*
X169926000Y-89662000D01*
X169926000Y-89662000D02*
X169038000Y-90550000D01*
X132460000Y-89408000D02*
X132460000Y-85724000D01*
X131318000Y-84582000D02*
X116581724Y-84582000D01*
X116581724Y-84582000D02*
X114056194Y-87107530D01*
X114056194Y-87107530D02*
X112906194Y-87107530D01*
X132460000Y-85724000D02*
X131318000Y-84582000D01*
X117706194Y-109967530D02*
X117506194Y-109967530D01*
X117506194Y-109967530D02*
X113186194Y-105647530D01*
X113186194Y-105647530D02*
X112906194Y-105647530D01*
X146940000Y-112268000D02*
X145690000Y-112268000D01*
X116612664Y-115824000D02*
X114056194Y-113267530D01*
X145690000Y-112268000D02*
X141372000Y-107950000D01*
X141372000Y-107950000D02*
X131318000Y-107950000D01*
X131318000Y-107950000D02*
X129540000Y-109728000D01*
X129540000Y-109728000D02*
X127762000Y-109728000D01*
X114056194Y-113267530D02*
X112906194Y-113267530D01*
X127762000Y-109728000D02*
X121666000Y-115824000D01*
X121666000Y-115824000D02*
X116612664Y-115824000D01*
X117706194Y-102347530D02*
X117426194Y-102347530D01*
X117426194Y-102347530D02*
X113106194Y-98027530D01*
X113106194Y-98027530D02*
X112906194Y-98027530D01*
X117706194Y-94727530D02*
X117426194Y-94727530D01*
X117426194Y-94727530D02*
X113106194Y-90407530D01*
X113106194Y-90407530D02*
X112906194Y-90407530D01*
X150240000Y-114808000D02*
X151002000Y-115570000D01*
X151002000Y-115570000D02*
X163068000Y-115570000D01*
X163068000Y-115570000D02*
X164084000Y-114554000D01*
X164084000Y-114554000D02*
X164084000Y-112522000D01*
X164084000Y-112522000D02*
X166484000Y-110122000D01*
X166484000Y-110122000D02*
X166484000Y-110110000D01*
X161684000Y-113410000D02*
X161684000Y-113144000D01*
X164338000Y-104902000D02*
X166484000Y-102756000D01*
X166484000Y-102756000D02*
X166484000Y-102490000D01*
X161684000Y-113144000D02*
X164338000Y-110490000D01*
X164338000Y-110490000D02*
X164338000Y-104902000D01*
X161684000Y-105790000D02*
X161884000Y-105790000D01*
X161884000Y-105790000D02*
X164592000Y-103082000D01*
X164592000Y-103082000D02*
X164592000Y-96562000D01*
X164592000Y-96562000D02*
X166284000Y-94870000D01*
X166284000Y-94870000D02*
X166484000Y-94870000D01*
X161684000Y-98170000D02*
X161684000Y-97904000D01*
X164338000Y-95250000D02*
X164338000Y-89196000D01*
X161684000Y-97904000D02*
X164338000Y-95250000D01*
X164338000Y-89196000D02*
X166284000Y-87250000D01*
X166284000Y-87250000D02*
X166484000Y-87250000D01*
M02*
